<svg width="512" height="512" viewBox="0 0 512 512" fill="none" xmlns="http://www.w3.org/2000/svg">
<rect width="512" height="512" rx="42" fill="#B21E4B"/>
<path d="M68.2163 226.975C68.2163 200.009 90.5476 181.259 122.991 181.259C154.171 181.259 173.974 198.534 174.817 226.343H147.851C147.219 213.071 137.738 205.276 122.57 205.276C105.927 205.276 95.1825 213.281 95.1825 226.132C95.1825 237.087 101.081 243.197 113.932 246.146L138.16 251.413C164.494 257.101 177.345 270.585 177.345 293.548C177.345 322.199 155.014 340.739 121.095 340.739C88.2302 340.739 66.7415 323.253 66.1095 295.655H93.0757C93.2864 308.716 103.82 316.511 121.095 316.511C139.003 316.511 150.379 308.716 150.379 295.865C150.379 285.542 145.112 279.433 132.472 276.694L108.034 271.217C81.91 265.528 68.2163 250.571 68.2163 226.975ZM212.906 338H184.887L240.504 183.998H268.103L323.72 338H295.279L282.85 302.396H225.336L212.906 338ZM250.827 229.925L233.341 279.643H275.055L257.358 229.925C256.094 225.922 254.619 221.287 254.198 218.127C253.566 221.076 252.302 225.711 250.827 229.925ZM401.809 284.91H367.891V338H340.925V183.998H401.809C432.778 183.998 452.792 204.222 452.792 234.349C452.792 264.054 432.568 284.91 401.809 284.91ZM396.543 208.014H367.891V260.894H396.121C414.66 260.894 424.562 250.992 424.562 234.138C424.562 217.284 414.45 208.014 396.543 208.014Z" fill="white"/>
</svg>
