<svg width="192" height="192" viewBox="0 0 192 192" fill="none" xmlns="http://www.w3.org/2000/svg">
<rect width="192" height="192" rx="15.75" fill="#B21E4B"/>
<path d="M25.5811 85.2407C25.5811 75.1283 33.9554 68.0971 46.1218 68.0971C57.8141 68.0971 65.2404 74.5753 65.5564 85.0037H55.4441C55.2071 80.0265 51.6519 77.1034 45.9638 77.1034C39.7226 77.1034 35.6934 80.1055 35.6934 84.9247C35.6934 89.0328 37.9055 91.3239 42.7246 92.4299L51.8099 94.405C61.6853 96.538 66.5044 101.594 66.5044 110.205C66.5044 120.95 58.1301 127.902 45.4107 127.902C33.0863 127.902 25.0281 121.345 24.7911 110.995H34.9034C34.9824 115.894 38.9325 118.817 45.4107 118.817C52.126 118.817 56.3921 115.894 56.3921 111.074C56.3921 107.203 54.417 104.912 49.6769 103.885L40.5126 101.831C30.7163 99.6981 25.5811 94.0889 25.5811 85.2407ZM79.8398 126.875H69.3325L90.1891 69.1241H100.538L121.395 126.875H110.73L106.069 113.524H84.5009L79.8398 126.875ZM94.0602 86.3467L87.503 104.991H103.146L96.5093 86.3467C96.0353 84.8457 95.4823 83.1076 95.3243 81.9226C95.0873 83.0286 94.6133 84.7666 94.0602 86.3467ZM150.679 106.966H137.959V126.875H127.847V69.1241H150.679C162.292 69.1241 169.797 76.7084 169.797 88.0058C169.797 99.1451 162.213 106.966 150.679 106.966ZM148.703 78.1304H137.959V97.9601H148.545C155.498 97.9601 159.211 94.247 159.211 87.9267C159.211 81.6065 155.419 78.1304 148.703 78.1304Z" fill="white"/>
</svg>
