<svg width="192" height="192" viewBox="0 0 192 192" fill="none" xmlns="http://www.w3.org/2000/svg">
<rect width="192" height="192" rx="15.75" fill="#B21E4B"/>
<path d="M137.584 120.456C129.495 127.516 123.023 142.813 123.023 142.813C123.023 142.813 112.874 126.046 104.049 120.309C90.0761 111.337 84.0457 111.19 84.0457 111.19V118.25C84.0457 118.25 95.5182 120.015 101.254 125.016C113.315 135.459 123.023 152.226 123.023 152.226C123.023 152.226 131.701 132.959 140.085 126.34C151.851 117.221 162 118.25 162 118.25V111.19C162 111.043 147.439 111.926 137.584 120.456Z" fill="white"/>
<path d="M84.046 140.313C74.6327 135.018 57.8651 133.988 57.8651 133.988C57.8651 133.988 70.6614 119.133 73.3089 108.984C77.4272 93.0989 75.5152 87.3626 75.5152 87.3626L68.7493 89.716C68.7493 89.716 70.6614 101.041 67.8668 107.954C61.8364 122.516 48.7459 137.077 48.7459 137.077C48.7459 137.077 70.2201 138.989 79.1922 144.578C91.8414 152.521 94.1948 162.228 94.1948 162.228L100.961 159.875C100.961 160.022 95.3714 146.784 84.046 140.313Z" fill="white"/>
<path d="M74.1913 76.7725C90.8118 75.4487 95.6655 71.7717 95.6655 71.7717L91.253 66.1825C91.253 66.1825 81.1043 71.6246 73.4559 71.1833C57.4238 70.3008 39.1854 62.9466 39.1854 62.9466C39.1854 62.9466 44.3334 83.5383 41.8329 93.6871C38.3029 108.248 29.625 113.543 29.625 113.543L34.0375 119.133C34.0375 119.133 45.0688 109.572 47.4221 96.9229C49.3342 86.48 44.9217 70.4479 44.9217 70.4479C44.9217 70.4479 63.4542 77.655 74.1913 76.7725Z" fill="white"/>
<path d="M77.2801 48.8267C88.0172 47.2088 101.843 37.9425 101.843 37.9425C101.843 37.9425 100.961 57.3575 105.373 67.0651C112.139 82.0676 117.14 85.4505 117.14 85.4505L121.111 79.5672C121.111 79.5672 112.433 71.9188 110.374 64.5646C105.961 49.415 107.138 30 107.138 30C107.138 30 89.0468 41.4725 78.4568 42.5021C63.4543 43.9729 55.5118 37.6483 55.5118 37.6483L51.5405 43.6788C51.5405 43.5317 64.3368 50.7388 77.2801 48.8267Z" fill="white"/>
<path d="M117.875 111.631C117.875 111.631 122.435 101.041 128.759 96.7759C141.997 87.8038 160.971 82.5088 160.971 82.5088C160.971 82.5088 144.056 69.4184 139.643 59.8579C133.466 46.4733 136.849 36.9129 136.849 36.9129L129.789 35.1479C129.789 35.1479 126.994 49.2679 133.025 60.7404C138.025 70.1538 151.41 80.1555 151.41 80.1555C151.41 80.1555 132.583 85.7447 124.641 92.9517C112.433 104.13 110.815 109.866 110.815 109.866L117.875 111.631Z" fill="white"/>
</svg>
