<svg width="512" height="512" viewBox="0 0 512 512" fill="none" xmlns="http://www.w3.org/2000/svg">
<rect width="512" height="512" rx="42" fill="#B21E4B"/>
<path d="M366.891 321.217C345.319 340.044 328.061 380.835 328.061 380.835C328.061 380.835 300.998 336.122 277.464 320.825C240.203 296.899 224.122 296.507 224.122 296.507V315.334C224.122 315.334 254.715 320.04 270.012 333.376C302.174 361.224 328.061 405.937 328.061 405.937C328.061 405.937 351.202 354.556 373.559 336.906C404.937 312.588 432 315.334 432 315.334V296.507C432 296.115 393.17 298.468 366.891 321.217Z" fill="white"/>
<path d="M224.123 374.167C199.02 360.047 154.307 357.302 154.307 357.302C154.307 357.302 188.43 317.687 195.49 290.624C206.473 248.264 201.374 232.967 201.374 232.967L183.332 239.243C183.332 239.243 188.43 269.444 180.978 287.878C164.897 326.708 129.989 365.538 129.989 365.538C129.989 365.538 187.254 370.637 211.179 385.542C244.911 406.722 251.186 432.608 251.186 432.608L269.228 426.333C269.228 426.725 254.324 391.425 224.123 374.167Z" fill="white"/>
<path d="M197.844 204.727C242.165 201.197 255.108 191.391 255.108 191.391L243.341 176.487C243.341 176.487 216.278 190.999 195.882 189.822C153.13 187.469 104.494 167.858 104.494 167.858C104.494 167.858 118.222 222.769 111.555 249.832C102.141 288.662 79 302.782 79 302.782L90.7667 317.687C90.7667 317.687 120.183 292.192 126.459 258.461C131.558 230.613 119.791 187.861 119.791 187.861C119.791 187.861 169.211 207.08 197.844 204.727Z" fill="white"/>
<path d="M206.08 130.205C234.713 125.89 271.582 101.18 271.582 101.18C271.582 101.18 269.228 152.953 280.995 178.84C299.037 218.847 312.373 227.868 312.373 227.868L322.963 212.179C322.963 212.179 299.822 191.784 294.331 172.172C282.564 131.773 285.702 80 285.702 80C285.702 80 237.458 110.593 209.218 113.339C169.211 117.261 148.031 100.396 148.031 100.396L137.441 116.477C137.441 116.085 171.565 135.303 206.08 130.205Z" fill="white"/>
<path d="M314.333 297.684C314.333 297.684 326.492 269.444 343.358 258.069C378.658 234.144 429.255 220.024 429.255 220.024C429.255 220.024 384.149 185.116 372.382 159.621C355.909 123.929 364.93 98.4344 364.93 98.4344L346.103 93.7277C346.103 93.7277 338.651 131.381 354.732 161.975C368.068 187.077 403.76 213.748 403.76 213.748C403.76 213.748 353.556 228.652 332.376 247.871C299.821 277.68 295.507 292.977 295.507 292.977L314.333 297.684Z" fill="white"/>
</svg>
